<?xml version="1.0" encoding="UTF-8"?>
<svg xmlns="http://www.w3.org/2000/svg" xmlns:xlink="http://www.w3.org/1999/xlink" width="400px" height="400px" viewBox="0 0 400 400" version="1.1">
<g id="surface1">
<path style=" stroke:none;fill-rule:nonzero;fill:rgb(0%,0%,0%);fill-opacity:1;" d="M 0 0 C 132 0 264 0 400 0 C 400 132 400 264 400 400 C 268 400 136 400 0 400 C 0 268 0 136 0 0 Z M 0 0 "/>
<path style=" stroke:none;fill-rule:nonzero;fill:rgb(100%,100%,100%);fill-opacity:1;" d="M 57.144531 57.144531 C 57.527344 57.625 57.839844 58.042969 58.152344 58.5625 C 60.808594 62.765625 64.707031 66.214844 69.144531 68.429688 C 69.253906 68.484375 69.367188 68.539062 69.480469 68.597656 C 76.117188 71.867188 83.917969 72.339844 90.949219 70.078125 C 93.402344 69.242188 95.757812 68.066406 97.996094 66.777344 C 109.300781 60.273438 122.597656 57.101562 135.597656 57.117188 C 135.726562 57.117188 135.859375 57.117188 135.992188 57.117188 C 148.195312 57.136719 160.363281 59.984375 184.714844 74.285156 C 184.84375 74.386719 184.972656 74.488281 185.105469 74.59375 C 185.839844 75.171875 186.542969 75.777344 187.234375 76.410156 C 187.523438 76.671875 187.820312 76.929688 188.117188 77.1875 C 189.398438 78.308594 190.632812 79.476562 191.839844 80.679688 C 191.9375 80.777344 192.039062 80.878906 192.144531 80.980469 C 192.710938 81.546875 193.25 82.132812 193.773438 82.738281 C 194.074219 83.085938 194.386719 83.421875 194.695312 83.757812 C 195.398438 84.53125 196.0625 85.328125 196.714844 86.144531 C 196.847656 86.304688 196.976562 86.464844 197.109375 86.628906 C 200.171875 90.390625 202.804688 94.476562 205.078125 98.757812 C 205.28125 99.132812 205.484375 99.507812 205.6875 99.882812 C 212.40625 112.347656 214.339844 126.097656 214.320312 140.054688 C 214.320312 140.949219 214.320312 141.847656 214.320312 142.742188 C 214.320312 144.59375 214.320312 146.445312 214.320312 148.296875 C 214.320312 150.171875 214.316406 152.042969 214.316406 153.917969 C 214.316406 154.097656 214.316406 154.097656 214.316406 154.277344 C 214.316406 154.882812 214.316406 155.488281 214.316406 156.09375 C 214.320312 160.46875 214.316406 164.84375 214.316406 169.214844 C 214.3125 173.542969 214.3125 177.875 214.3125 182.203125 C 214.3125 182.335938 214.3125 182.472656 214.3125 182.609375 C 214.3125 183.839844 214.3125 185.070312 214.3125 186.300781 C 214.3125 189.355469 214.3125 192.414062 214.3125 195.46875 C 214.3125 195.609375 214.3125 195.75 214.3125 195.890625 C 214.3125 202.652344 214.308594 209.414062 214.308594 216.179688 C 214.304688 218.523438 214.304688 220.867188 214.304688 223.214844 C 214.304688 223.433594 214.304688 223.433594 214.304688 223.65625 C 214.304688 230.421875 214.300781 237.191406 214.300781 243.960938 C 214.300781 244.398438 214.300781 244.839844 214.300781 245.277344 C 214.300781 248.191406 214.300781 251.105469 214.300781 254.019531 C 214.300781 259.816406 214.296875 265.613281 214.296875 271.410156 C 214.296875 271.683594 214.296875 271.960938 214.296875 272.238281 C 214.296875 284.65625 214.292969 297.074219 214.289062 309.496094 C 214.289062 309.667969 214.289062 309.667969 214.289062 309.847656 C 214.289062 315.660156 214.289062 321.472656 214.285156 327.285156 C 208.75 327.90625 208.75 327.90625 206.558594 328.121094 C 206.339844 328.144531 206.121094 328.164062 205.902344 328.1875 C 205.324219 328.242188 204.742188 328.300781 204.164062 328.359375 C 203.53125 328.421875 202.898438 328.484375 202.265625 328.546875 C 201.039062 328.667969 199.808594 328.789062 198.578125 328.910156 C 197.144531 329.054688 195.710938 329.195312 194.277344 329.335938 C 191.71875 329.589844 189.164062 329.84375 186.605469 330.097656 C 184.128906 330.34375 181.648438 330.589844 179.167969 330.835938 C 179.015625 330.847656 178.863281 330.863281 178.703125 330.878906 C 178.085938 330.941406 177.472656 331.003906 176.855469 331.0625 C 174.34375 331.3125 171.832031 331.5625 169.316406 331.808594 C 168.746094 331.867188 168.175781 331.921875 167.601562 331.980469 C 166.101562 332.128906 164.605469 332.277344 163.105469 332.425781 C 162.484375 332.488281 161.867188 332.546875 161.246094 332.609375 C 160.679688 332.664062 160.113281 332.722656 159.546875 332.777344 C 159.34375 332.796875 159.136719 332.820312 158.929688 332.839844 C 158.652344 332.867188 158.375 332.894531 158.097656 332.921875 C 157.945312 332.9375 157.789062 332.953125 157.628906 332.96875 C 157.285156 333 157.285156 333 157.144531 333 C 157.144531 332.828125 157.144531 332.65625 157.144531 332.476562 C 157.140625 326.578125 157.136719 320.679688 157.136719 314.777344 C 157.136719 314.597656 157.136719 314.597656 157.136719 314.417969 C 157.132812 301.679688 157.125 288.941406 157.121094 276.203125 C 157.121094 275.921875 157.121094 275.640625 157.121094 275.355469 C 157.117188 269.417969 157.113281 263.476562 157.109375 257.535156 C 157.109375 254.550781 157.105469 251.570312 157.105469 248.585938 C 157.105469 248.136719 157.105469 247.683594 157.105469 247.234375 C 157.101562 240.304688 157.097656 233.375 157.09375 226.445312 C 157.09375 226.296875 157.09375 226.148438 157.09375 225.992188 C 157.09375 223.589844 157.09375 221.191406 157.09375 218.789062 C 157.089844 211.871094 157.089844 204.949219 157.085938 198.03125 C 157.085938 197.890625 157.085938 197.746094 157.085938 197.601562 C 157.082031 194.476562 157.082031 191.351562 157.078125 188.226562 C 157.078125 186.96875 157.078125 185.710938 157.078125 184.457031 C 157.078125 184.316406 157.078125 184.179688 157.078125 184.039062 C 157.074219 179.605469 157.074219 175.175781 157.070312 170.742188 C 157.070312 166.277344 157.070312 161.8125 157.066406 157.347656 C 157.066406 156.730469 157.0625 156.113281 157.0625 155.496094 C 157.0625 155.316406 157.0625 155.316406 157.0625 155.128906 C 157.0625 153.214844 157.0625 151.300781 157.0625 149.386719 C 157.0625 147.503906 157.0625 145.621094 157.058594 143.738281 C 157.058594 142.632812 157.058594 141.53125 157.058594 140.425781 C 157.058594 139.605469 157.058594 138.785156 157.054688 137.964844 C 157.054688 137.636719 157.054688 137.308594 157.054688 136.976562 C 157.074219 130.960938 155.371094 125.402344 151.144531 121 C 151.078125 120.933594 151.015625 120.867188 150.953125 120.796875 C 147.433594 117.03125 142.214844 114.660156 137.0625 114.410156 C 131.269531 114.246094 125.644531 115.921875 121.355469 119.945312 C 121.238281 120.058594 121.121094 120.171875 121 120.285156 C 120.863281 120.410156 120.730469 120.535156 120.589844 120.660156 C 116.933594 124.09375 114.617188 129.3125 114.414062 134.332031 C 114.410156 134.703125 114.410156 135.074219 114.410156 135.445312 C 114.410156 135.585938 114.410156 135.730469 114.410156 135.875 C 114.410156 136.355469 114.410156 136.832031 114.410156 137.3125 C 114.410156 137.660156 114.410156 138.007812 114.40625 138.355469 C 114.40625 139.113281 114.40625 139.875 114.40625 140.632812 C 114.40625 141.769531 114.40625 142.90625 114.40625 144.042969 C 114.402344 145.980469 114.402344 147.914062 114.402344 149.851562 C 114.402344 151.816406 114.402344 153.777344 114.398438 155.742188 C 114.398438 155.867188 114.398438 155.988281 114.398438 156.117188 C 114.398438 156.75 114.398438 157.378906 114.398438 158.011719 C 114.394531 162.445312 114.394531 166.882812 114.390625 171.316406 C 114.390625 175.988281 114.386719 180.660156 114.382812 185.332031 C 114.382812 185.542969 114.382812 185.542969 114.382812 185.757812 C 114.382812 187.332031 114.382812 188.902344 114.382812 190.472656 C 114.378906 193.382812 114.378906 196.289062 114.375 199.195312 C 114.375 199.414062 114.375 199.414062 114.375 199.636719 C 114.371094 206.5625 114.367188 213.488281 114.363281 220.410156 C 114.363281 220.871094 114.363281 221.328125 114.363281 221.789062 C 114.363281 226.558594 114.359375 231.328125 114.355469 236.097656 C 114.355469 240.710938 114.351562 245.328125 114.351562 249.941406 C 114.351562 250.402344 114.347656 250.863281 114.347656 251.320312 C 114.34375 258.242188 114.34375 265.164062 114.339844 272.082031 C 114.339844 272.230469 114.335938 272.375 114.335938 272.523438 C 114.335938 275.425781 114.335938 278.332031 114.332031 281.234375 C 114.332031 282.804688 114.332031 284.375 114.328125 285.945312 C 114.328125 286.15625 114.328125 286.15625 114.328125 286.371094 C 114.328125 291.042969 114.324219 295.714844 114.324219 300.382812 C 114.320312 304.804688 114.320312 309.226562 114.316406 313.644531 C 114.316406 314.273438 114.316406 314.902344 114.316406 315.53125 C 114.3125 315.65625 114.3125 315.78125 114.3125 315.90625 C 114.3125 317.867188 114.3125 319.824219 114.3125 321.78125 C 114.3125 323.707031 114.308594 325.628906 114.308594 327.550781 C 114.308594 328.679688 114.308594 329.808594 114.308594 330.9375 C 114.308594 331.773438 114.304688 332.609375 114.304688 333.445312 C 114.304688 333.78125 114.304688 334.121094 114.304688 334.457031 C 114.304688 334.914062 114.304688 335.367188 114.304688 335.824219 C 114.304688 335.957031 114.304688 336.089844 114.304688 336.226562 C 114.300781 337.125 114.300781 337.125 114.144531 337.285156 C 113.847656 337.328125 113.546875 337.359375 113.25 337.390625 C 113.15625 337.398438 113.0625 337.410156 112.964844 337.417969 C 112.644531 337.453125 112.320312 337.484375 112 337.515625 C 111.769531 337.539062 111.539062 337.5625 111.308594 337.582031 C 110.667969 337.648438 110.03125 337.710938 109.390625 337.773438 C 108.707031 337.839844 108.019531 337.910156 107.332031 337.976562 C 105.984375 338.113281 104.636719 338.246094 103.289062 338.378906 C 101.722656 338.535156 100.152344 338.691406 98.585938 338.84375 C 95.789062 339.121094 92.988281 339.398438 90.191406 339.675781 C 87.476562 339.945312 84.761719 340.214844 82.042969 340.484375 C 79.089844 340.777344 76.132812 341.070312 73.179688 341.363281 C 72.863281 341.394531 72.550781 341.425781 72.234375 341.457031 C 72.078125 341.472656 71.925781 341.488281 71.765625 341.503906 C 70.671875 341.613281 69.578125 341.722656 68.484375 341.828125 C 67.152344 341.960938 65.816406 342.09375 64.484375 342.226562 C 63.804688 342.292969 63.125 342.359375 62.445312 342.429688 C 61.820312 342.488281 61.199219 342.550781 60.578125 342.613281 C 60.351562 342.636719 60.125 342.65625 59.898438 342.679688 C 59.59375 342.710938 59.289062 342.742188 58.980469 342.769531 C 58.8125 342.789062 58.640625 342.804688 58.464844 342.820312 C 58.027344 342.855469 57.585938 342.855469 57.144531 342.855469 C 57.144531 248.570312 57.144531 154.285156 57.144531 57.144531 Z M 57.144531 57.144531 "/>
<path style=" stroke:none;fill-rule:nonzero;fill:rgb(100%,100%,100%);fill-opacity:1;" d="M 342.855469 57.144531 C 342.855469 76 342.855469 94.855469 342.855469 114.285156 C 331.402344 114.355469 331.402344 114.355469 319.714844 114.429688 C 314.667969 115.183594 310.421875 116.730469 306.714844 120.285156 C 306.578125 120.410156 306.445312 120.535156 306.304688 120.660156 C 302.617188 124.125 300.378906 129.3125 300.125 134.355469 C 300.113281 134.761719 300.109375 135.164062 300.105469 135.570312 C 300.105469 135.699219 300.101562 135.832031 300.097656 135.964844 C 300.09375 136.949219 300.195312 137.902344 300.328125 138.878906 C 300.621094 141.164062 300.839844 143.453125 301.066406 145.742188 C 301.132812 146.402344 301.199219 147.058594 301.265625 147.71875 C 301.378906 148.867188 301.492188 150.015625 301.605469 151.164062 C 301.777344 152.875 301.945312 154.582031 302.117188 156.289062 C 302.402344 159.167969 302.6875 162.046875 302.976562 164.921875 C 303.261719 167.808594 303.546875 170.691406 303.835938 173.578125 C 303.851562 173.757812 303.871094 173.9375 303.890625 174.125 C 303.960938 174.863281 304.035156 175.597656 304.109375 176.335938 C 304.839844 183.667969 305.566406 191.003906 306.296875 198.339844 C 306.371094 199.109375 306.449219 199.875 306.523438 200.640625 C 306.542969 200.832031 306.5625 201.019531 306.582031 201.210938 C 306.984375 205.253906 307.382812 209.296875 307.785156 213.335938 C 307.871094 214.191406 307.957031 215.050781 308.042969 215.90625 C 308.140625 216.925781 308.242188 217.945312 308.34375 218.960938 C 308.714844 222.683594 309.085938 226.40625 309.453125 230.128906 C 309.472656 230.296875 309.488281 230.464844 309.503906 230.636719 C 310.007812 235.699219 310.511719 240.761719 311.011719 245.824219 C 311.285156 248.558594 311.558594 251.292969 311.828125 254.027344 C 311.878906 254.539062 311.929688 255.054688 311.980469 255.570312 C 313.011719 265.941406 314.042969 276.316406 315.074219 286.6875 C 315.371094 289.640625 315.664062 292.59375 315.957031 295.546875 C 315.988281 295.847656 316.015625 296.148438 316.046875 296.449219 C 316.226562 298.246094 316.40625 300.042969 316.582031 301.839844 C 316.699219 303.019531 316.820312 304.203125 316.9375 305.386719 C 316.945312 305.484375 316.957031 305.582031 316.964844 305.679688 C 317.273438 308.78125 317.582031 311.882812 317.890625 314.984375 C 318.210938 318.167969 318.527344 321.351562 318.84375 324.535156 C 319.027344 326.375 319.207031 328.210938 319.390625 330.050781 C 319.515625 331.28125 319.636719 332.511719 319.757812 333.746094 C 319.828125 334.445312 319.898438 335.148438 319.96875 335.851562 C 320.035156 336.492188 320.097656 337.128906 320.160156 337.769531 C 320.183594 338 320.207031 338.226562 320.230469 338.457031 C 320.261719 338.769531 320.292969 339.082031 320.320312 339.398438 C 320.347656 339.65625 320.347656 339.65625 320.375 339.921875 C 320.457031 340.898438 320.511719 341.878906 320.570312 342.855469 C 301.574219 342.855469 282.574219 342.855469 263 342.855469 C 262.34375 336.945312 262.34375 336.945312 262.097656 334.453125 C 262.066406 334.160156 262.039062 333.867188 262.007812 333.574219 C 261.929688 332.789062 261.851562 332 261.773438 331.210938 C 261.6875 330.347656 261.601562 329.484375 261.515625 328.625 C 261.367188 327.121094 261.21875 325.617188 261.070312 324.117188 C 260.910156 322.511719 260.75 320.910156 260.589844 319.308594 C 260.582031 319.207031 260.570312 319.105469 260.558594 319 C 260.519531 318.585938 260.476562 318.171875 260.4375 317.761719 C 260.046875 313.824219 259.652344 309.886719 259.261719 305.949219 C 258.910156 302.382812 258.554688 298.816406 258.199219 295.246094 C 258.175781 295.015625 258.152344 294.785156 258.128906 294.550781 C 258.117188 294.4375 258.105469 294.320312 258.09375 294.203125 C 258.085938 294.085938 258.074219 293.972656 258.0625 293.855469 C 258.039062 293.621094 258.015625 293.390625 257.992188 293.15625 C 257.980469 293.039062 257.96875 292.925781 257.957031 292.808594 C 257.933594 292.574219 257.910156 292.339844 257.886719 292.105469 C 256.730469 280.46875 255.574219 268.828125 252.394531 236.792969 C 252.367188 236.507812 252.335938 236.222656 252.308594 235.933594 C 251.511719 227.886719 250.714844 219.84375 249.917969 211.796875 C 249.609375 208.6875 249.300781 205.578125 248.992188 202.472656 C 248.960938 202.136719 248.925781 201.800781 248.894531 201.464844 C 248.003906 192.5 247.113281 183.539062 246.214844 174.578125 C 246.085938 173.304688 245.960938 172.03125 245.832031 170.757812 C 245.734375 169.785156 245.636719 168.808594 245.539062 167.835938 C 245.515625 167.597656 245.492188 167.359375 245.46875 167.121094 C 245.199219 164.453125 244.933594 161.78125 244.664062 159.113281 C 244.492188 157.429688 244.324219 155.746094 244.15625 154.058594 C 244.066406 153.179688 243.980469 152.296875 243.890625 151.417969 C 243.558594 148.171875 243.25 144.925781 243.03125 141.667969 C 243.019531 141.539062 243.011719 141.410156 243.003906 141.277344 C 242.148438 128.796875 244.199219 116.183594 256.285156 91.714844 C 256.351562 91.617188 256.421875 91.519531 256.492188 91.417969 C 257.378906 90.136719 258.285156 88.882812 259.246094 87.660156 C 259.4375 87.414062 259.628906 87.171875 259.816406 86.925781 C 260.546875 85.980469 261.296875 85.078125 262.105469 84.203125 C 262.375 83.914062 262.636719 83.621094 262.894531 83.320312 C 264.617188 81.34375 266.433594 79.359375 268.4375 77.664062 C 268.789062 77.363281 269.132812 77.046875 269.472656 76.730469 C 270.246094 76.027344 271.042969 75.367188 271.855469 74.714844 C 272.019531 74.582031 272.179688 74.449219 272.34375 74.316406 C 283.972656 64.851562 298.363281 59.101562 342.855469 57.144531 Z M 342.855469 57.144531 "/>
</g>
</svg>
